<svg aria-hidden="true" style="position: absolute; width: 0; height: 0; overflow: hidden;" version="1.1" xmlns="http://www.w3.org/2000/svg" xmlns:xlink="http://www.w3.org/1999/xlink">
<defs>
<symbol id="icon-logo" viewBox="0 0 32 32">
<path d="M12.8 0.839c-6.172 1.365-10.866 6.172-12.032 12.331-0.313 1.721-0.213 4.921 0.213 6.5 1.607 6.002 6.044 10.197 12.174 11.492 1.422 0.313 4.75 0.228 6.229-0.128 3.044-0.754 5.504-2.176 7.652-4.395 1.109-1.152 1.621-1.806 2.29-2.958 2.588-4.48 2.759-9.87 0.469-14.535-2.005-4.068-5.575-6.94-10.126-8.164-1.621-0.441-5.191-0.512-6.869-0.142zM16.356 2.489v1.209h0.498c0.441 0 0.498 0.043 0.498 0.356s-0.043 0.341-0.455 0.299c-0.256-0.043-0.711-0.071-0.996-0.071l-0.54-0.014v-0.967c0-0.526 0.043-1.195 0.085-1.493 0.085-0.469 0.142-0.526 0.498-0.526h0.412v1.209zM14.080 1.479c0 0.028 0.043 0.156 0.085 0.27 0.057 0.142-0.071 0.228-0.427 0.299-0.384 0.071-0.512 0.171-0.512 0.384 0 0.27 0.057 0.284 0.569 0.199s0.569-0.071 0.569 0.199c0 0.213-0.128 0.313-0.512 0.384-0.356 0.071-0.484 0.156-0.427 0.299 0.043 0.114 0.085 0.256 0.085 0.327 0 0.057 0.256 0.085 0.569 0.043 0.498-0.071 0.569-0.043 0.569 0.199 0 0.228-0.156 0.313-0.939 0.455-0.526 0.085-0.953 0.156-0.967 0.128s-0.156-0.697-0.313-1.493l-0.284-1.451 0.654-0.128c0.711-0.156 1.28-0.199 1.28-0.114zM20.096 2.005c0.313 0.398 0.313 0.64-0.028 0.74-0.185 0.043-0.299-0.014-0.341-0.199-0.071-0.284-0.526-0.384-0.526-0.114 0 0.085 0.199 0.313 0.427 0.512 0.967 0.796 0.199 2.148-0.996 1.735-0.412-0.142-0.711-0.498-0.711-0.825 0-0.27 0.498-0.228 0.74 0.057 0.185 0.228 0.27 0.256 0.412 0.114 0.142-0.156 0.085-0.284-0.341-0.668-0.626-0.569-0.668-0.953-0.156-1.465 0.284-0.284 0.441-0.341 0.811-0.27 0.256 0.043 0.569 0.228 0.711 0.384zM11.463 3.499c0.341 0.754 0.612 1.394 0.597 1.408-0.085 0.071-0.668 0.356-0.725 0.356-0.028 0-0.171-0.256-0.313-0.555-0.228-0.512-0.284-0.54-0.569-0.412l-0.313 0.142 0.256 0.54c0.341 0.697 0.341 0.654-0.142 0.825-0.356 0.128-0.427 0.1-0.555-0.156-0.071-0.171-0.37-0.811-0.64-1.408l-0.512-1.081 0.427-0.156c0.398-0.142 0.441-0.114 0.654 0.341 0.256 0.54 0.299 0.555 0.597 0.37 0.156-0.1 0.156-0.213 0.014-0.64-0.1-0.299-0.142-0.555-0.114-0.569 0.071-0.071 0.612-0.356 0.654-0.37 0.028 0 0.327 0.612 0.683 1.365zM23.467 3.484c0 0.327-0.256 0.384-0.697 0.142-0.398-0.199-0.441-0.199-0.569 0.057-0.128 0.228-0.085 0.299 0.27 0.441 0.455 0.185 0.484 0.256 0.299 0.54-0.1 0.171-0.185 0.156-0.54-0.014-0.384-0.213-0.427-0.199-0.597 0.071-0.199 0.327-0.228 0.284 0.37 0.597 0.299 0.156 0.427 0.299 0.384 0.441-0.057 0.114-0.142 0.213-0.213 0.213-0.228 0-1.692-0.768-1.692-0.882 0-0.071 0.284-0.697 0.64-1.394l0.64-1.28 0.853 0.427c0.469 0.242 0.853 0.526 0.853 0.64zM7.822 4.693c0 0.213-0.1 0.284-0.398 0.284-0.512 0-0.939 0.441-0.811 0.839 0.1 0.341 0.868 1.010 1.152 1.010 0.299 0 0.668-0.654 0.555-0.996-0.071-0.242-0.028-0.284 0.27-0.284 0.327 0 0.37 0.057 0.37 0.512 0 0.683-0.754 1.479-1.408 1.479-1.308 0-2.119-1.337-1.479-2.418 0.284-0.484 0.654-0.683 1.294-0.697 0.37-0.014 0.455 0.043 0.455 0.27zM25.273 6.315l-0.583 1.778-0.398-0.284c-0.341-0.242-0.37-0.327-0.242-0.654 0.199-0.555-0.142-0.868-0.668-0.626-0.327 0.142-0.427 0.128-0.612-0.043-0.114-0.128-0.185-0.242-0.142-0.284s3.1-1.607 3.214-1.636c0.014-0.014-0.242 0.782-0.569 1.749zM18.702 5.333c3.641 0.967 6.642 3.826 7.751 7.396 0.455 1.422 0.555 4.053 0.213 5.561-0.91 4.181-4.196 7.467-8.377 8.377-1.508 0.341-4.139 0.242-5.561-0.213-3.598-1.124-6.414-4.096-7.424-7.822-0.341-1.266-0.341-4.124 0.014-5.39 1.18-4.324 4.679-7.467 9.116-8.178 0.796-0.128 3.413 0.043 4.267 0.27zM3.982 11.307c0.526 0.27 0.711 0.612 0.711 1.308-0.014 1.593-2.176 2.005-2.788 0.512-0.555-1.308 0.796-2.489 2.076-1.82zM29.668 11.577c0.37 0.37 0.484 0.597 0.484 1.010 0 0.74-0.754 1.493-1.493 1.493-0.412 0-0.64-0.114-1.010-0.484-0.668-0.668-0.668-1.351 0-2.020 0.37-0.37 0.597-0.484 1.010-0.484s0.64 0.114 1.010 0.484zM4.324 18.133c0.299 0.242 0.412 0.469 0.469 0.981 0.057 0.398 0.028 0.654-0.071 0.654-0.071 0-0.128 0.114-0.114 0.242 0 0.128-0.199 0.384-0.469 0.569-0.384 0.256-0.597 0.313-0.996 0.242-0.839-0.156-1.252-0.54-1.351-1.252-0.128-0.796 0.1-1.266 0.754-1.621 0.583-0.313 1.237-0.242 1.778 0.185zM29.326 17.82c0.1 0.1 0.299 0.228 0.441 0.284 0.341 0.128 0.74 1.010 0.597 1.337-0.071 0.142-0.1 0.327-0.1 0.412 0.057 0.313-0.782 0.924-1.323 0.981-0.626 0.057-1.493-0.398-1.493-0.782 0-0.156-0.071-0.313-0.156-0.37-0.256-0.156 0-1.095 0.427-1.508 0.213-0.199 0.569-0.398 0.796-0.441 0.242-0.028 0.469-0.071 0.526-0.085 0.057 0 0.185 0.071 0.284 0.171zM25.828 24.96c0.526 0.526 0.526 0.725-0.043 1.237-0.256 0.242-0.299 0.228-0.882-0.37l-0.597-0.612 0.441-0.384c0.242-0.199 0.484-0.37 0.512-0.37 0.043 0 0.284 0.228 0.569 0.498zM7.111 24.96c0.356 0.384 0.299 0.668-0.071 0.356-0.27-0.228-0.455-0.071-0.228 0.199 0.213 0.256-0.071 0.484-0.313 0.242-0.114-0.114-0.228-0.085-0.412 0.085-0.199 0.185-0.299 0.199-0.427 0.071s-0.043-0.299 0.384-0.74c0.299-0.313 0.597-0.569 0.64-0.569 0.057 0 0.242 0.156 0.427 0.356zM24.747 26.837c0 0.313-0.37 0.612-0.754 0.612-0.128 0-0.412-0.27-0.654-0.597-0.398-0.54-0.412-0.612-0.199-0.74 0.171-0.1 0.284-0.057 0.412 0.142 0.498 0.725 0.612 0.839 0.754 0.697 0.1-0.114 0.043-0.313-0.213-0.668-0.199-0.284-0.327-0.597-0.27-0.683 0.128-0.213 0.91 0.825 0.924 1.237zM8.292 25.899c0.384 0.213 0.526 0.398 0.526 0.754 0 0.341-0.54 0.939-0.853 0.939-0.412 0-0.853-0.427-0.853-0.825 0-0.455 0.114-0.64 0.498-0.853 0.356-0.199 0.313-0.199 0.683-0.014zM22.699 27.62c0.085 0.284 0.284 0.327 0.412 0.114 0.128-0.199 0.356-0.171 0.356 0.028 0 0.171-0.839 0.754-0.924 0.654-0.014-0.028-0.213-0.356-0.427-0.725-0.327-0.569-0.37-0.725-0.199-0.825 0.213-0.128 0.612 0.27 0.782 0.754zM10.297 27.108c0.128 0.114 0.228 0.384 0.228 0.583 0 0.853-1.052 1.223-1.508 0.54-0.54-0.825 0.597-1.82 1.28-1.124zM21.447 27.577c0.043 0.142-0.014 0.171-0.228 0.128-0.441-0.114-0.683 0.228-0.484 0.668 0.199 0.427 0.597 0.469 0.697 0.071 0.085-0.313 0.469-0.398 0.469-0.114 0 0.27-0.171 0.484-0.54 0.668-0.256 0.128-0.398 0.128-0.711-0.014-0.54-0.256-0.626-1.124-0.142-1.451 0.384-0.27 0.839-0.242 0.939 0.043zM12.089 27.975c0 0.1-0.085 0.185-0.185 0.185-0.114 0-0.27 0.256-0.37 0.569-0.156 0.526-0.398 0.711-0.626 0.484-0.043-0.057 0-0.313 0.114-0.583s0.171-0.654 0.128-0.825c-0.085-0.327-0.071-0.327 0.427-0.185 0.284 0.085 0.512 0.242 0.512 0.356zM13.682 28.345c0.142 0.213-0.014 1.124-0.228 1.323-0.085 0.1-0.398 0.128-0.697 0.1-0.427-0.057-0.526-0.128-0.455-0.299 0.043-0.128 0.128-0.512 0.171-0.853l0.085-0.626 0.512 0.1c0.284 0.057 0.555 0.171 0.612 0.256zM15.204 29.042c0.171 0.484 0.299 0.924 0.299 0.996 0 0.156-0.469-0.057-0.668-0.299-0.156-0.199-0.185-0.199-0.37 0.043-0.427 0.569-0.469 0.114-0.071-0.74 0.242-0.484 0.441-0.882 0.469-0.882s0.185 0.398 0.341 0.882zM18.432 29.497c0.256-0.071 0.341-0.028 0.341 0.142 0 0.142-0.128 0.228-0.341 0.228-0.185 0-0.441 0.043-0.555 0.085-0.156 0.057-0.242-0.071-0.313-0.54-0.043-0.341-0.128-0.725-0.156-0.853-0.043-0.142 0.028-0.256 0.185-0.284 0.199-0.043 0.284 0.085 0.384 0.626 0.114 0.626 0.156 0.668 0.455 0.597zM16.498 29.028c0 0.597 0.043 0.697 0.284 0.697 0.156 0 0.284 0.057 0.284 0.142 0 0.071-0.156 0.142-0.341 0.142s-0.441 0.043-0.569 0.085c-0.199 0.071-0.228-0.057-0.228-0.825 0-0.811 0.028-0.91 0.284-0.924 0.256-0.028 0.284 0.057 0.284 0.683z"></path>
<path d="M16.882 7.794c-0.142 0.142-0.242 0.341-0.242 0.427 0 0.1-0.128 0.171-0.27 0.171s-0.412 0.128-0.597 0.284l-0.341 0.299 0.356-0.043c0.327-0.043 0.356 0 0.313 0.455-0.057 0.612-0.398 0.896-0.91 0.796-0.469-0.085-0.54 0.228-0.171 0.64 0.213 0.242 0.213 0.299-0.043 0.725-0.384 0.654-1.109 0.711-2.162 0.156-1.109-0.583-1.18-0.754-0.54-1.451 0.711-0.782 0.74-1.522 0.085-2.062-0.896-0.754-2.176-0.313-2.361 0.796-0.071 0.469-0.028 0.583 0.412 1.024 0.256 0.256 0.455 0.555 0.427 0.64s0.028 0.156 0.142 0.156c0.1 0 0.028 0.128-0.156 0.27-0.242 0.185-0.313 0.356-0.256 0.569 0.043 0.156 0.014 0.327-0.057 0.37-0.142 0.1 0.156 0.811 0.398 0.967 0.128 0.085 0.185 0.555 0.185 1.607 0 1.479 0 1.508-0.427 1.934-0.455 0.455-0.555 0.725-0.228 0.597 0.156-0.057 0.185 0 0.128 0.213-0.057 0.199-0.014 0.299 0.142 0.299 0.284 0 0.384 0.441 0.384 1.877 0 0.811-0.057 1.252-0.171 1.28-0.1 0.043-0.114 0.128-0.043 0.256 0.071 0.114 0.128 0.37 0.128 0.569 0.014 0.284 0.1 0.37 0.412 0.398 0.213 0.028 0.384 0 0.398-0.071 0.1-0.839 0.1-1.394 0-1.451-0.071-0.043-0.142-0.64-0.171-1.323s0-1.138 0.057-1.024c0.1 0.171 0.171 0.142 0.398-0.156 0.213-0.256 0.427-0.356 0.768-0.356 0.27 0 0.512 0.057 0.569 0.128 0.128 0.228 0.839-0.1 1.508-0.668 0.569-0.484 0.612-0.498 0.754-0.256 0.085 0.156 0.284 0.398 0.427 0.555 0.213 0.228 0.228 0.27 0.057 0.199-0.299-0.1-1.337 0.555-1.92 1.223-0.64 0.725-0.725 1.166-0.327 1.593 0.256 0.284 0.313 0.455 0.242 0.924-0.043 0.384-0.028 0.54 0.071 0.469 0.1-0.043 0.114-0.014 0.057 0.085-0.057 0.085-0.156 0.128-0.228 0.085-0.057-0.043-0.185 0.028-0.284 0.142-0.114 0.128-0.427 0.213-0.796 0.213-0.327 0-0.768 0.057-0.967 0.142-0.327 0.114-0.37 0.213-0.37 0.768 0 0.64 0.185 0.967 0.341 0.583 0.114-0.313 0.626-0.256 0.725 0.071 0.114 0.356 0.242 0.356 0.469 0 0.1-0.156 0.299-0.284 0.469-0.284 0.156 0 0.256 0.057 0.199 0.128-0.043 0.071 0 0.185 0.085 0.242 0.085 0.043 0.213 0.014 0.256-0.071 0.057-0.1 0.327-0.284 0.583-0.412 0.356-0.185 0.54-0.398 0.683-0.853 0.128-0.398 0.356-0.711 0.612-0.868l0.427-0.256-0.37-0.242c-0.455-0.299-0.455-0.697 0.014-1.067 0.54-0.427 0.939-0.37 1.323 0.142 0.185 0.242 0.54 0.526 0.796 0.64 0.583 0.242 0.597 0.27 0.654 1.038 0.057 0.683 0.057 0.683-0.967 0.768-0.654 0.057-0.953 0.384-0.825 0.924 0.085 0.427 0.085 0.427 0.526 0.199 0.427-0.199 0.455-0.199 0.654 0.085l0.185 0.299 0.299-0.299c0.256-0.256 0.327-0.27 0.455-0.085 0.142 0.185 0.213 0.185 0.583-0.028 0.412-0.228 0.427-0.284 0.498-1.365 0.057-0.811 0.171-1.28 0.398-1.664 0.171-0.299 0.313-0.569 0.313-0.612 0-0.028-0.213-0.057-0.484-0.057-0.54 0-1.138-0.412-1.436-1.010-0.128-0.228-0.199-0.412-0.171-0.412 0.014 0 0.284 0.128 0.597 0.284 0.683 0.341 1.735 0.37 2.176 0.057 0.711-0.498 0.668-1.337-0.128-2.432-0.512-0.725-0.498-1.095 0.043-1.152 0.284-0.028 0.441 0.057 0.612 0.313 0.128 0.199 0.199 0.427 0.142 0.512-0.185 0.313 0.213 0.128 0.484-0.228 0.526-0.668 0.327-1.351-0.484-1.621-0.427-0.142-0.583-0.128-1.067 0.114-0.54 0.256-0.555 0.256-0.412 0 0.071-0.142 0.54-0.583 1.038-0.967 0.996-0.782 1.081-0.91 1.081-1.65 0-0.939-0.953-1.465-1.892-1.038-0.341 0.156-0.754 0.796-0.597 0.953 0.043 0.043 0.071 0.014 0.071-0.071 0-0.171 0.853-0.512 0.967-0.398 0.043 0.043 0.028 0.071-0.028 0.071s-0.028 0.128 0.057 0.284c0.199 0.384-0.014 0.768-0.811 1.479-0.782 0.697-1.095 1.266-0.981 1.835 0.114 0.54 0.484 1.138 0.64 1.024 0.071-0.028 0.213 0.043 0.313 0.185 0.185 0.213 0.171 0.228-0.043 0.043-0.142-0.1-0.256-0.128-0.256-0.057 0 0.171 0.555 0.697 0.697 0.654 0.043-0.014 0.114 0.014 0.156 0.057 0.043 0.057-0.014 0.043-0.114-0.014-0.142-0.085-0.156 0.028-0.085 0.455 0.1 0.668-0.185 1.024-0.839 1.024-0.939 0-1.408-0.64-1.749-2.389-0.114-0.597-0.242-1.266-0.284-1.465-0.071-0.327-0.028-0.384 0.356-0.455 0.498-0.1 0.782-0.555 0.654-1.052-0.071-0.284-0.128-0.313-0.284-0.185-0.484 0.398-1.010-0.199-0.896-1.010 0.043-0.299 0.114-0.341 0.583-0.327s0.526-0.028 0.526-0.313c0-0.199-0.085-0.341-0.199-0.341-0.284 0-0.398-0.199-0.284-0.498 0.071-0.171 0.213-0.228 0.498-0.185 0.228 0.043 0.412 0.028 0.412-0.014s0.156-0.27 0.356-0.498l0.37-0.427-0.398-0.313c-0.213-0.171-0.754-0.412-1.209-0.54-0.498-0.142-0.91-0.356-1.081-0.583-0.341-0.427-0.469-0.441-0.782-0.1zM16.882 8.277c-0.043 0.114-0.085 0.071-0.085-0.085-0.014-0.156 0.028-0.242 0.071-0.185 0.043 0.043 0.057 0.171 0.014 0.27zM11.918 8.86c0.085 0.071 0.171 0.228 0.156 0.356 0 0.171-0.043 0.156-0.128-0.085-0.071-0.171-0.156-0.313-0.185-0.313s-0.043 0.142-0.043 0.313c0.014 0.398-0.54 0.54-0.683 0.171-0.185-0.469 0.37-0.754 0.882-0.441zM10.197 9.344c-0.043 0.142-0.071 0.057-0.071-0.171 0-0.242 0.028-0.341 0.071-0.256 0.028 0.1 0.028 0.299 0 0.427zM18.46 9.273c0.128 0.128 0.171 0.128 0.171 0 0-0.1 0.071-0.171 0.156-0.171 0.114 0 0.114 0.071-0.014 0.213-0.1 0.114-0.256 0.213-0.356 0.213s-0.256-0.1-0.356-0.213c-0.142-0.171-0.142-0.213 0.028-0.213 0.114 0 0.27 0.071 0.37 0.171zM11.278 12.188c-0.1 0.028-0.27 0.028-0.356 0-0.1-0.043-0.028-0.071 0.171-0.071s0.27 0.028 0.185 0.071zM21.902 12.7c0 0.028-0.142 0.171-0.313 0.327l-0.327 0.27 0.27-0.327c0.256-0.299 0.37-0.384 0.37-0.27zM12.572 13.383c0.455 0.213 0.555 0.484 0.284 0.768-0.199 0.199-0.185 0.228 0.114 0.341 0.327 0.114 1.038-0.043 1.195-0.284 0.128-0.199 0.256-0.156 0.469 0.185 0.1 0.185 0.142 0.284 0.085 0.228-0.128-0.114-0.953 0.327-2.091 1.109-0.384 0.256-0.597 0.484-0.498 0.526 0.085 0.028-0.057 0.057-0.327 0.071-0.398 0.014-0.441-0.014-0.242-0.128s0.242-0.356 0.242-1.55c0-1.536 0.043-1.593 0.768-1.266zM14.862 13.369c-0.043 0.071-0.171 0.142-0.256 0.142-0.1 0-0.085-0.057 0.043-0.142 0.27-0.171 0.327-0.171 0.213 0zM11.335 15.388c-0.028 0.412-0.043 0.114-0.043-0.668s0.014-1.124 0.043-0.754c0.028 0.37 0.028 1.010 0 1.422zM21.049 13.412c0 0.028-0.142 0.171-0.313 0.327l-0.327 0.27 0.27-0.327c0.256-0.299 0.37-0.384 0.37-0.27zM20.153 15.175c-0.043 0.142-0.071 0.028-0.071-0.242s0.028-0.384 0.071-0.256c0.028 0.142 0.028 0.37 0 0.498zM22.144 15.303c-0.043 0.043-0.171 0.057-0.27 0.014-0.114-0.043-0.071-0.085 0.085-0.085 0.156-0.014 0.242 0.028 0.185 0.071zM20.395 15.73c0.043 0.114 0.028 0.171-0.057 0.128s-0.142-0.142-0.142-0.228c0-0.199 0.1-0.156 0.199 0.1zM16.896 17.266c-0.1 0.085-0.142 0.1-0.071 0.028 0.057-0.085 0.114-0.299 0.114-0.512 0.028-0.356 0.028-0.356 0.085-0.014 0.043 0.185-0.014 0.412-0.128 0.498zM17.351 17.408c0 0.028-0.114 0.142-0.242 0.242-0.228 0.185-0.242 0.171-0.057-0.057s0.299-0.299 0.299-0.185zM21.575 18.091c-0.043 0.1-0.071 0.028-0.071-0.171s0.028-0.27 0.071-0.185c0.028 0.1 0.028 0.27 0 0.356zM11.335 19.94c-0.028 0.412-0.043 0.114-0.043-0.668s0.014-1.124 0.043-0.754c0.028 0.37 0.028 1.010 0 1.422zM20.437 18.716c-0.043 0.043-0.171 0.057-0.27 0.014-0.114-0.043-0.071-0.085 0.085-0.085 0.156-0.014 0.242 0.028 0.185 0.071zM19.3 21.717c-0.043 0.142-0.071 0.028-0.071-0.242s0.028-0.384 0.071-0.256c0.028 0.142 0.028 0.37 0 0.498z"></path>
<path d="M20.722 10.396c-0.142 0.085-0.412 0.114-0.612 0.071-0.398-0.1-0.469 0.128-0.085 0.313 0.299 0.171 0.811-0.014 0.924-0.313 0.1-0.27 0.114-0.27-0.228-0.071z"></path>
<path d="M2.261 11.819c-0.327 0.612-0.313 1.095 0.043 1.323 0.441 0.284 0.996 0.341 1.067 0.114 0.043-0.085 0-0.171-0.085-0.171-0.256 0-1.209-0.427-1.124-0.498 0.043-0.043 0.299 0.028 0.583 0.142 1.010 0.412 1.124 0.171 0.171-0.356-0.341-0.185-0.597-0.37-0.569-0.398s0.341 0.1 0.697 0.299c0.498 0.27 0.654 0.313 0.711 0.156 0.043-0.114-0.156-0.327-0.54-0.555-0.74-0.427-0.74-0.427-0.953-0.057z"></path>
<path d="M3.271 11.662c0 0.085 0.156 0.114 0.398 0.057 0.555-0.142 0.569-0.199 0.057-0.199-0.256 0-0.455 0.071-0.455 0.142z"></path>
<path d="M3.698 11.947c0 0.071 0.171 0.142 0.398 0.142 0.299 0 0.341-0.028 0.171-0.142-0.284-0.185-0.569-0.185-0.569 0z"></path>
<path d="M3.669 12.999c-0.228 0.612-0.228 0.64 0.043 0.612 0.156-0.014 0.37-0.114 0.484-0.242 0.27-0.299 0.427-0.996 0.228-0.996-0.085 0-0.156 0.114-0.156 0.242-0.014 0.142-0.114 0.412-0.228 0.612-0.128 0.199-0.185 0.242-0.142 0.1 0.341-1.109 0.156-1.365-0.228-0.327z"></path>
<path d="M28.302 11.506c-0.455 0.085-0.469 0.1-0.142 0.171 0.199 0.043 0.512-0.014 0.711-0.114 0.384-0.185 0.242-0.199-0.569-0.057z"></path>
<path d="M28.928 11.748c-0.526 0.27-0.853 0.597-0.725 0.711 0.1 0.114 1.38-0.526 1.38-0.683 0-0.213-0.256-0.228-0.654-0.028z"></path>
<path d="M27.733 11.947c-0.171 0.114-0.156 0.142 0.1 0.142 0.171 0 0.356-0.071 0.398-0.142 0.114-0.185-0.213-0.185-0.498 0z"></path>
<path d="M28.985 12.402c-0.526 0.299-0.697 0.54-0.398 0.54 0.27 0 1.28-0.569 1.28-0.711 0-0.228-0.313-0.156-0.882 0.171z"></path>
<path d="M27.463 12.672c-0.014 0.213 0.114 0.526 0.27 0.711l0.284 0.341-0.199-0.498c-0.1-0.27-0.228-0.597-0.27-0.711-0.043-0.128-0.085-0.057-0.085 0.156z"></path>
<path d="M27.89 12.828c0.128 0.484 0.555 1.024 0.555 0.711 0-0.242-0.455-1.166-0.583-1.166-0.057 0-0.043 0.199 0.028 0.455z"></path>
<path d="M29.127 12.914c-0.498 0.228-0.74 0.597-0.384 0.597 0.327 0 1.124-0.469 1.124-0.654 0-0.242-0.071-0.242-0.74 0.057z"></path>
<path d="M28.7 13.753c0.1 0.043 0.228 0.028 0.27-0.014 0.057-0.043-0.028-0.085-0.185-0.071-0.156 0-0.199 0.043-0.085 0.085z"></path>
<path d="M2.844 18.19c0 0.356 0.284 0.54 0.441 0.284 0.1-0.156 0.128-0.142 0.128 0.043 0 0.341 0.242 0.327 0.427-0.028 0.213-0.398 0.071-0.569-0.512-0.569-0.384 0-0.484 0.057-0.484 0.27z"></path>
<path d="M2.091 18.588c-0.028 0.142-0.114 0.37-0.171 0.498-0.085 0.213-0.028 0.256 0.356 0.256 0.398 0 0.441-0.028 0.284-0.213-0.142-0.171-0.142-0.213 0.057-0.213 0.27 0 0.299-0.156 0.057-0.398s-0.498-0.213-0.583 0.071z"></path>
<path d="M3.968 18.716c-0.156 0.199-0.156 0.256-0.014 0.313 0.128 0.043 0.142 0.114 0.028 0.242-0.114 0.142-0.057 0.199 0.228 0.27 0.484 0.128 0.526 0.071 0.384-0.498-0.142-0.555-0.356-0.654-0.626-0.327z"></path>
<path d="M3.015 19.3c0.028 0.142 0.142 0.256 0.256 0.256s0.228-0.114 0.256-0.256c0.028-0.171-0.043-0.242-0.256-0.242s-0.284 0.071-0.256 0.242z"></path>
<path d="M2.076 19.74c-0.085 0.142 0.028 0.299 0.455 0.668 0.284 0.228 0.356 0.242 0.455 0.071 0.242-0.384 0.171-0.597-0.171-0.484-0.284 0.085-0.299 0.071-0.128-0.142 0.171-0.199 0.142-0.228-0.171-0.228-0.199 0-0.398 0.057-0.441 0.114z"></path>
<path d="M3.74 19.925c0.057 0.242 0.043 0.27-0.085 0.142-0.256-0.256-0.412-0.185-0.356 0.156 0.057 0.427 0.384 0.469 0.825 0.114 0.341-0.284 0.356-0.299 0.085-0.498-0.398-0.299-0.555-0.27-0.469 0.085z"></path>
<path d="M28.217 18.133c-0.128 0.313 0.228 0.725 0.398 0.469 0.085-0.156 0.142-0.142 0.242 0.014s0.156 0.142 0.284-0.1c0.256-0.484 0.185-0.597-0.341-0.597-0.327 0-0.54 0.085-0.583 0.213z"></path>
<path d="M29.298 18.631c-0.128 0.242-0.114 0.284 0.156 0.284 0.256 0 0.27 0.028 0.128 0.213-0.156 0.185-0.114 0.213 0.199 0.213 0.412 0 0.441-0.085 0.228-0.626-0.156-0.441-0.498-0.484-0.711-0.085z"></path>
<path d="M27.506 18.987c-0.114 0.597-0.043 0.697 0.37 0.569 0.242-0.071 0.27-0.142 0.128-0.299-0.128-0.156-0.114-0.199 0.071-0.199 0.27 0 0.299-0.156 0.057-0.398-0.299-0.299-0.526-0.185-0.626 0.327z"></path>
<path d="M28.516 19.2c-0.057 0.1-0.043 0.228 0.043 0.313 0.199 0.199 0.64 0.028 0.569-0.213-0.085-0.228-0.484-0.299-0.612-0.1z"></path>
<path d="M27.947 19.826c-0.284 0.228-0.284 0.228 0.057 0.512 0.455 0.398 0.725 0.356 0.725-0.085 0-0.313-0.043-0.341-0.199-0.213-0.171 0.142-0.213 0.114-0.256-0.128-0.043-0.284-0.057-0.284-0.327-0.085z"></path>
<path d="M29.34 19.826c0.057 0.142 0.014 0.185-0.128 0.128-0.242-0.085-0.284 0.455-0.043 0.612 0.199 0.128 0.91-0.583 0.782-0.782-0.156-0.242-0.697-0.199-0.612 0.043z"></path>
<path d="M25.031 25.188c0 0.071 0.071 0.1 0.142 0.057 0.085-0.043 0.142-0.114 0.142-0.156 0-0.028-0.057-0.057-0.142-0.057-0.071 0-0.142 0.071-0.142 0.156z"></path>
<path d="M25.458 25.6c0 0.071 0.071 0.142 0.142 0.142 0.085 0 0.142-0.071 0.142-0.142 0-0.085-0.057-0.142-0.142-0.142-0.071 0-0.142 0.057-0.142 0.142z"></path>
<path d="M7.78 26.425c-0.299 0.327-0.313 0.74-0.028 0.74 0.256 0 0.697-0.64 0.569-0.853s-0.284-0.171-0.54 0.114z"></path>
<path d="M9.614 27.435c-0.242 0.256-0.313 0.868-0.114 0.868s0.597-0.498 0.597-0.754c0-0.341-0.228-0.412-0.484-0.114z"></path>
<path d="M13.013 28.587c-0.043 0.071-0.014 0.142 0.057 0.142 0.085 0 0.156-0.071 0.156-0.142 0-0.085-0.028-0.142-0.057-0.142-0.043 0-0.114 0.057-0.156 0.142z"></path>
<path d="M12.885 29.227c-0.043 0.114-0.014 0.213 0.057 0.213 0.185 0 0.313-0.256 0.156-0.341-0.071-0.043-0.156 0.014-0.213 0.128z"></path>
</symbol>
</defs>
</svg>
